<?xml version="1.0" standalone="no"?>
<!DOCTYPE svg PUBLIC "-//W3C//DTD SVG 20010904//EN"
 "http://www.w3.org/TR/2001/REC-SVG-20010904/DTD/svg10.dtd">
<svg version="1.0" xmlns="http://www.w3.org/2000/svg"
 width="842.000000pt" height="842.000000pt" viewBox="0 0 842.000000 842.000000"
 preserveAspectRatio="xMidYMid meet">
<metadata>
Created by potrace 1.11, written by Peter Selinger 2001-2013
</metadata>
<g transform="translate(0.000000,842.000000) scale(0.100000,-0.100000)"
fill="#000000" stroke="none">
<path d="M3554 5765 c-89 -16 -133 -30 -205 -66 -190 -95 -302 -275 -334 -537
-5 -43 -9 -695 -6 -922 l1 -55 166 1 c91 1 167 4 170 7 3 3 6 209 6 459 1 307
5 476 13 523 32 185 150 286 335 287 201 2 321 -89 362 -275 8 -35 12 -204 12
-524 l1 -473 108 -1 c134 -1 169 -1 208 0 l30 1 -4 513 c-4 484 -5 516 -25
587 -72 256 -233 415 -474 467 -93 20 -272 24 -364 8z"/>
<path d="M682 5730 l-34 -5 0 -1185 c1 -652 1 -1343 1 -1535 l1 -351 210 1
c204 0 210 0 211 20 0 11 0 514 1 1118 0 603 3 1097 7 1097 4 0 8 -12 9 -27 1
-15 9 -66 17 -113 8 -47 17 -105 20 -130 4 -25 15 -101 26 -170 11 -69 22
-136 24 -150 6 -46 17 -115 21 -132 1 -9 10 -67 19 -128 9 -61 18 -119 19
-128 2 -9 7 -37 10 -62 4 -25 13 -85 21 -135 8 -49 17 -108 21 -130 3 -22 7
-51 9 -65 3 -14 7 -43 10 -65 3 -22 10 -65 15 -95 5 -30 12 -73 15 -95 3 -22
10 -67 15 -100 5 -33 12 -78 15 -100 3 -22 10 -62 15 -90 5 -27 11 -70 15 -95
3 -25 10 -72 15 -105 6 -33 12 -74 15 -90 l5 -30 202 0 202 0 7 35 c4 19 10
55 14 80 3 25 8 56 10 70 3 14 7 41 9 60 3 19 12 76 20 125 8 50 18 110 21
135 3 25 15 99 25 165 11 66 22 138 25 160 3 22 10 65 15 95 5 30 12 75 15
100 3 25 10 71 15 103 6 31 14 83 20 115 5 31 12 77 15 102 3 25 8 56 10 70 3
14 7 39 9 55 6 40 18 116 21 135 3 15 13 84 20 130 2 14 9 54 14 90 6 36 13
88 17 115 3 28 7 52 9 55 2 3 6 28 9 55 11 85 33 215 37 220 3 2 4 -163 4
-366 l0 -369 85 0 c47 -1 149 -2 228 -3 78 -1 143 0 143 3 1 3 2 350 3 773 1
677 -1 767 -14 768 -18 0 -652 0 -661 0 -7 -1 -18 -45 -25 -101 -4 -34 -21
-159 -29 -210 -2 -14 -7 -45 -10 -70 -3 -25 -12 -85 -20 -135 -7 -49 -16 -112
-20 -140 -8 -69 -15 -111 -25 -175 -5 -30 -11 -73 -14 -95 -6 -41 -74 -520
-81 -565 -2 -14 -7 -50 -11 -80 -4 -30 -8 -57 -9 -60 -1 -3 -5 -34 -10 -70 -5
-36 -9 -67 -10 -70 -1 -3 -5 -32 -9 -65 -4 -32 -9 -67 -11 -76 -2 -9 -6 -38
-10 -65 -3 -27 -8 -58 -9 -69 -2 -11 -7 -51 -11 -88 -4 -37 -9 -66 -12 -64 -6
7 -18 75 -39 232 -3 28 -8 59 -10 69 -2 11 -8 56 -14 100 -19 141 -21 150 -25
176 -7 39 -21 134 -40 275 -3 23 -7 50 -9 61 -2 12 -7 45 -11 74 -4 29 -8 60
-10 69 -1 9 -6 43 -10 76 -12 88 -11 83 -24 170 -18 116 -19 125 -26 175 -3
25 -8 56 -10 70 -2 14 -9 61 -15 106 -6 44 -12 90 -14 101 -3 11 -7 44 -11 74
-3 30 -8 61 -10 69 -2 8 -7 40 -11 70 -3 30 -8 66 -10 80 -2 14 -6 45 -9 70
-9 77 -11 80 -63 81 -308 3 -573 3 -600 -1z"/>
<path d="M4833 5727 c-7 -12 -6 -1527 1 -1534 8 -8 186 -6 194 2 3 2 6 307 6
677 l1 673 275 1 c189 0 290 -3 323 -12 26 -7 50 -13 52 -13 146 -35 241 -157
268 -344 8 -59 12 -230 12 -537 l0 -450 103 0 103 0 -4 503 c-4 564 -6 582
-78 735 -81 174 -239 276 -462 298 -99 10 -788 10 -794 1z"/>
<path d="M6649 5730 l-24 -5 1 -1530 c1 -841 2 -1532 3 -1535 0 -3 262 -5 581
-5 l580 -1 0 48 0 48 -532 2 -533 3 0 723 c0 398 2 727 5 731 3 4 203 7 445 6
l440 0 0 45 0 45 -440 0 c-242 -1 -442 2 -445 6 -3 4 -5 303 -5 666 l0 658
533 3 532 2 0 45 c0 29 -4 45 -12 46 -77 3 -1111 3 -1129 -1z"/>
<path d="M3351 3982 c-33 -51 -32 -62 2 -58 22 2 97 54 97 67 0 3 -15 13 -34
22 l-34 16 -31 -47z"/>
<path d="M2325 3890 l-30 -5 0 -197 c0 -109 2 -199 5 -199 3 -1 22 -2 43 -3
27 -1 37 2 38 14 0 8 1 66 1 128 0 62 4 110 7 105 25 -30 61 -83 61 -90 1 -4
11 -21 24 -37 l24 -29 53 81 c29 45 55 79 57 77 2 -2 3 -58 3 -124 0 -67 3
-122 7 -122 44 -8 82 -3 83 11 0 8 1 99 2 203 l2 187 -51 0 -52 0 -48 -80
c-27 -44 -52 -80 -55 -80 -4 0 -30 37 -59 83 -53 84 -57 87 -115 77z"/>
<path d="M3255 3881 c-53 -24 -83 -55 -106 -105 -64 -140 38 -299 191 -298
194 2 292 217 161 353 -68 69 -163 89 -246 50z m131 -72 c94 -34 108 -177 22
-229 -43 -26 -87 -25 -129 3 -82 55 -67 200 24 226 44 13 50 13 83 0z"/>
<path d="M3997 3892 c-31 -3 -37 -6 -32 -20 3 -9 40 -101 81 -203 75 -185 75
-186 107 -187 18 -1 37 2 43 6 10 6 164 382 164 400 0 4 -15 6 -32 5 -18 -1
-40 -2 -48 -2 -10 -1 -32 -48 -65 -141 -27 -77 -52 -136 -56 -132 -3 4 -27 66
-54 139 -26 72 -52 133 -59 135 -6 2 -28 2 -49 0z"/>
<path d="M4826 3890 l-49 -5 -1 -183 c-1 -101 2 -191 5 -200 6 -15 24 -17 155
-17 l149 0 3 34 c2 19 -1 37 -7 41 -7 3 -56 6 -111 5 -65 -1 -100 2 -101 9 -1
6 -2 25 -2 41 l-1 30 96 3 96 3 0 39 1 39 -97 3 c-95 3 -96 3 -95 28 1 58 -5
55 108 52 58 -1 105 1 106 5 7 69 5 73 -31 73 -19 1 -66 2 -105 3 -38 1 -92 0
-119 -3z"/>
<path d="M5557 3892 l-37 -3 2 -202 3 -201 43 -2 42 -1 0 203 c0 111 -3 204
-7 206 -5 2 -25 2 -46 0z"/>
<path d="M6125 3886 c-47 -21 -67 -51 -73 -105 -4 -45 -2 -53 25 -79 17 -18
52 -36 88 -46 63 -19 105 -40 105 -56 0 -19 -33 -40 -64 -40 -18 0 -53 10 -77
23 l-45 22 -22 -26 c-12 -15 -22 -32 -22 -37 0 -19 94 -56 151 -60 64 -5 121
16 145 54 31 47 21 128 -20 155 -12 7 -55 25 -96 39 -66 23 -75 29 -75 50 0
39 43 49 105 23 l50 -21 21 29 c11 16 17 33 14 39 -23 37 -155 60 -210 36z"/>
<path d="M2196 3260 c-2 -5 0 -590 3 -600 0 -3 103 -5 229 -5 l227 0 0 305 0
305 -228 0 c-126 0 -230 -2 -231 -5z"/>
<path d="M3019 3260 c-10 -7 11 -137 34 -210 36 -117 120 -243 205 -305 64
-48 153 -89 237 -111 89 -23 295 -27 391 -9 229 44 391 172 472 375 22 55 60
214 56 238 -1 6 -2 15 -3 20 0 4 -76 7 -167 7 l-166 0 -19 -74 c-43 -170 -146
-254 -322 -265 -207 -12 -340 92 -373 294 -3 19 -8 37 -11 40 -7 7 -322 7
-334 0z"/>
<path d="M4829 3225 c-1 -54 -1 -525 0 -550 1 -20 6 -21 389 -19 421 1 461 4
570 40 169 56 285 177 340 354 14 43 42 202 37 210 -2 3 -48 5 -102 5 l-98 0
-17 -82 c-21 -104 -60 -183 -115 -233 -42 -40 -123 -83 -179 -96 -16 -4 -163
-9 -326 -11 l-298 -5 2 214 1 213 -101 0 -102 1 -1 -41z"/>
</g>
</svg>
